<svg xmlns="http://www.w3.org/2000/svg" viewBox="0 0 480 320">
<defs><linearGradient id="g" x1="0" y1="0" x2="1" y2="1"><stop offset="0" stop-color="#fff0eb"/><stop offset="1" stop-color="#d65a3a" stop-opacity=".28"/></linearGradient><filter id="s"><feDropShadow dx="0" dy="8" stdDeviation="8" flood-opacity=".18"/></filter></defs>
<rect width="480" height="320" rx="28" fill="url(#g)"/>
<circle cx="400" cy="50" r="70" fill="#69db7c" opacity=".18"/><circle cx="70" cy="270" r="90" fill="#f59f00" opacity=".12"/>
<g filter="url(#s)"><ellipse cx="240" cy="190" rx="150" ry="78" fill="#fff" stroke="#ddd" stroke-width="5"/></g>
<g><rect x="182" y="161" width="20" height="10" rx="5" fill="#d65a3a" transform="rotate(10 192 166)"/><rect x="226" y="145" width="16" height="8" rx="4" fill="#f59f00" transform="rotate(16 234 149)"/><rect x="240" y="138" width="30" height="15" rx="7" fill="#69db7c" transform="rotate(-13 255 145)"/><rect x="248" y="167" width="26" height="13" rx="6" fill="#7f5539" transform="rotate(-17 261 173)"/><rect x="192" y="130" width="22" height="11" rx="5" fill="#f08c00" transform="rotate(-11 203 135)"/><rect x="255" y="176" width="18" height="9" rx="4" fill="#4dabf7" transform="rotate(-5 264 180)"/><rect x="171" y="169" width="32" height="16" rx="8" fill="#d65a3a" transform="rotate(1 187 177)"/><rect x="184" y="125" width="28" height="14" rx="7" fill="#f59f00" transform="rotate(7 198 132)"/><rect x="260" y="141" width="24" height="12" rx="6" fill="#69db7c" transform="rotate(13 272 147)"/></g>
<text x="240" y="55" text-anchor="middle" font-family="Arial,sans-serif" font-size="17" font-weight="700" fill="#6b2417">Pav Bhaji</text>
<text x="240" y="285" text-anchor="middle" font-family="Arial,sans-serif" font-size="18" font-weight="700" fill="#6b2417">Butter Bhajji</text>
<text x="240" y="308" text-anchor="middle" font-family="Arial,sans-serif" font-size="34">🍛</text>
</svg>