<svg xmlns="http://www.w3.org/2000/svg" viewBox="0 0 480 320">
<defs><linearGradient id="g" x1="0" y1="0" x2="1" y2="1"><stop offset="0" stop-color="#fff1e9"/><stop offset="1" stop-color="#ef6c3b" stop-opacity=".28"/></linearGradient><filter id="s"><feDropShadow dx="0" dy="8" stdDeviation="8" flood-opacity=".18"/></filter></defs>
<rect width="480" height="320" rx="28" fill="url(#g)"/>
<circle cx="400" cy="50" r="70" fill="#faa2c1" opacity=".18"/><circle cx="70" cy="270" r="90" fill="#2f9e44" opacity=".12"/>
<g filter="url(#s)"><ellipse cx="240" cy="190" rx="150" ry="78" fill="#fff" stroke="#ddd" stroke-width="5"/></g>
<g><rect x="228" y="124" width="28" height="14" rx="7" fill="#ef6c3b" transform="rotate(-4 242 131)"/><rect x="249" y="121" width="24" height="12" rx="6" fill="#2f9e44" transform="rotate(2 261 127)"/><rect x="206" y="119" width="20" height="10" rx="5" fill="#faa2c1" transform="rotate(8 216 124)"/><rect x="184" y="186" width="16" height="8" rx="4" fill="#7f5539" transform="rotate(4 192 190)"/><rect x="201" y="118" width="30" height="15" rx="7" fill="#f08c00" transform="rotate(10 216 125)"/><rect x="163" y="129" width="26" height="13" rx="6" fill="#4dabf7" transform="rotate(16 176 135)"/><rect x="199" y="117" width="22" height="11" rx="5" fill="#ef6c3b" transform="rotate(-13 210 122)"/><rect x="227" y="173" width="18" height="9" rx="4" fill="#2f9e44" transform="rotate(-7 236 177)"/><rect x="248" y="150" width="32" height="16" rx="8" fill="#faa2c1" transform="rotate(-1 264 158)"/></g>
<text x="240" y="55" text-anchor="middle" font-family="Arial,sans-serif" font-size="17" font-weight="700" fill="#6b2d1a">Chinese Starter</text>
<text x="240" y="285" text-anchor="middle" font-family="Arial,sans-serif" font-size="18" font-weight="700" fill="#6b2d1a">Dish</text>
<text x="240" y="308" text-anchor="middle" font-family="Arial,sans-serif" font-size="34">🥘</text>
</svg>