<svg xmlns="http://www.w3.org/2000/svg" viewBox="0 0 480 320">
<defs><linearGradient id="g" x1="0" y1="0" x2="1" y2="1"><stop offset="0" stop-color="#fff8dc"/><stop offset="1" stop-color="#d6a72c" stop-opacity=".28"/></linearGradient><filter id="s"><feDropShadow dx="0" dy="8" stdDeviation="8" flood-opacity=".18"/></filter></defs>
<rect width="480" height="320" rx="28" fill="url(#g)"/>
<circle cx="400" cy="50" r="70" fill="#ff8787" opacity=".18"/><circle cx="70" cy="270" r="90" fill="#c2255c" opacity=".12"/>
<g filter="url(#s)"><ellipse cx="240" cy="190" rx="150" ry="78" fill="#fff" stroke="#ddd" stroke-width="5"/></g>
<g><rect x="227" y="153" width="26" height="13" rx="6" fill="#d6a72c" transform="rotate(-10 240 159)"/><rect x="248" y="140" width="22" height="11" rx="5" fill="#c2255c" transform="rotate(-4 259 145)"/><rect x="205" y="134" width="18" height="9" rx="4" fill="#ff8787" transform="rotate(2 214 138)"/><rect x="259" y="181" width="32" height="16" rx="8" fill="#7f5539" transform="rotate(8 275 189)"/><rect x="261" y="127" width="28" height="14" rx="7" fill="#f08c00" transform="rotate(14 275 134)"/><rect x="162" y="186" width="24" height="12" rx="6" fill="#4dabf7" transform="rotate(-15 174 192)"/><rect x="156" y="124" width="20" height="10" rx="5" fill="#d6a72c" transform="rotate(-9 166 129)"/><rect x="189" y="123" width="16" height="8" rx="4" fill="#c2255c" transform="rotate(-13 197 127)"/><rect x="198" y="190" width="30" height="15" rx="7" fill="#ff8787" transform="rotate(-7 213 197)"/></g>
<text x="240" y="55" text-anchor="middle" font-family="Arial,sans-serif" font-size="17" font-weight="700" fill="#6d5607">Rice</text>
<text x="240" y="285" text-anchor="middle" font-family="Arial,sans-serif" font-size="18" font-weight="700" fill="#6d5607">Hang Kong Rice</text>
<text x="240" y="308" text-anchor="middle" font-family="Arial,sans-serif" font-size="34">🍛</text>
</svg>