<svg xmlns="http://www.w3.org/2000/svg" viewBox="0 0 480 320">
<defs><linearGradient id="g" x1="0" y1="0" x2="1" y2="1"><stop offset="0" stop-color="#fff0eb"/><stop offset="1" stop-color="#d65a3a" stop-opacity=".28"/></linearGradient><filter id="s"><feDropShadow dx="0" dy="8" stdDeviation="8" flood-opacity=".18"/></filter></defs>
<rect width="480" height="320" rx="28" fill="url(#g)"/>
<circle cx="400" cy="50" r="70" fill="#69db7c" opacity=".18"/><circle cx="70" cy="270" r="90" fill="#9c36b5" opacity=".12"/>
<g filter="url(#s)"><ellipse cx="240" cy="190" rx="150" ry="78" fill="#fff" stroke="#ddd" stroke-width="5"/></g>
<g><rect x="170" y="190" width="26" height="13" rx="6" fill="#d65a3a" transform="rotate(-17 183 196)"/><rect x="220" y="136" width="22" height="11" rx="5" fill="#9c36b5" transform="rotate(-11 231 141)"/><rect x="136" y="195" width="18" height="9" rx="4" fill="#69db7c" transform="rotate(-5 145 199)"/><rect x="245" y="145" width="32" height="16" rx="8" fill="#7f5539" transform="rotate(1 261 153)"/><rect x="220" y="168" width="28" height="14" rx="7" fill="#f08c00" transform="rotate(7 234 175)"/><rect x="203" y="172" width="24" height="12" rx="6" fill="#4dabf7" transform="rotate(13 215 178)"/><rect x="212" y="197" width="20" height="10" rx="5" fill="#d65a3a" transform="rotate(9 222 202)"/><rect x="182" y="150" width="16" height="8" rx="4" fill="#9c36b5" transform="rotate(15 190 154)"/><rect x="125" y="130" width="30" height="15" rx="7" fill="#69db7c" transform="rotate(-14 140 137)"/></g>
<text x="240" y="55" text-anchor="middle" font-family="Arial,sans-serif" font-size="17" font-weight="700" fill="#6b2417">Pav Bhaji</text>
<text x="240" y="285" text-anchor="middle" font-family="Arial,sans-serif" font-size="18" font-weight="700" fill="#6b2417">Jain Bhaji</text>
<text x="240" y="308" text-anchor="middle" font-family="Arial,sans-serif" font-size="34">🍛</text>
</svg>