<svg xmlns="http://www.w3.org/2000/svg" viewBox="0 0 480 320">
<defs><linearGradient id="g" x1="0" y1="0" x2="1" y2="1"><stop offset="0" stop-color="#fff8dc"/><stop offset="1" stop-color="#d6a72c" stop-opacity=".28"/></linearGradient><filter id="s"><feDropShadow dx="0" dy="8" stdDeviation="8" flood-opacity=".18"/></filter></defs>
<rect width="480" height="320" rx="28" fill="url(#g)"/>
<circle cx="400" cy="50" r="70" fill="#ff8787" opacity=".18"/><circle cx="70" cy="270" r="90" fill="#f59f00" opacity=".12"/>
<g filter="url(#s)"><ellipse cx="240" cy="190" rx="150" ry="78" fill="#fff" stroke="#ddd" stroke-width="5"/></g>
<g><rect x="128" y="129" width="26" height="13" rx="6" fill="#d6a72c" transform="rotate(-14 141 135)"/><rect x="124" y="152" width="22" height="11" rx="5" fill="#f59f00" transform="rotate(-8 135 157)"/><rect x="172" y="122" width="18" height="9" rx="4" fill="#ff8787" transform="rotate(-2 181 126)"/><rect x="122" y="171" width="32" height="16" rx="8" fill="#7f5539" transform="rotate(-6 138 179)"/><rect x="241" y="176" width="28" height="14" rx="7" fill="#f08c00" transform="rotate(0 255 183)"/><rect x="221" y="143" width="24" height="12" rx="6" fill="#4dabf7" transform="rotate(6 233 149)"/><rect x="228" y="161" width="20" height="10" rx="5" fill="#d6a72c" transform="rotate(12 238 166)"/><rect x="121" y="127" width="16" height="8" rx="4" fill="#f59f00" transform="rotate(-17 129 131)"/><rect x="137" y="185" width="30" height="15" rx="7" fill="#ff8787" transform="rotate(-11 152 192)"/></g>
<text x="240" y="55" text-anchor="middle" font-family="Arial,sans-serif" font-size="17" font-weight="700" fill="#6d5607">Rice</text>
<text x="240" y="285" text-anchor="middle" font-family="Arial,sans-serif" font-size="18" font-weight="700" fill="#6d5607">Manchurian Rice</text>
<text x="240" y="308" text-anchor="middle" font-family="Arial,sans-serif" font-size="34">🍛</text>
</svg>