<svg xmlns="http://www.w3.org/2000/svg" viewBox="0 0 480 320">
<defs><linearGradient id="g" x1="0" y1="0" x2="1" y2="1"><stop offset="0" stop-color="#fff8dc"/><stop offset="1" stop-color="#d6a72c" stop-opacity=".28"/></linearGradient><filter id="s"><feDropShadow dx="0" dy="8" stdDeviation="8" flood-opacity=".18"/></filter></defs>
<rect width="480" height="320" rx="28" fill="url(#g)"/>
<circle cx="400" cy="50" r="70" fill="#faa2c1" opacity=".18"/><circle cx="70" cy="270" r="90" fill="#f59f00" opacity=".12"/>
<g filter="url(#s)"><ellipse cx="240" cy="190" rx="150" ry="78" fill="#fff" stroke="#ddd" stroke-width="5"/></g>
<g><rect x="208" y="139" width="30" height="15" rx="7" fill="#d6a72c" transform="rotate(1 223 146)"/><rect x="164" y="159" width="26" height="13" rx="6" fill="#f59f00" transform="rotate(7 177 165)"/><rect x="149" y="127" width="22" height="11" rx="5" fill="#faa2c1" transform="rotate(13 160 132)"/><rect x="142" y="192" width="18" height="9" rx="4" fill="#7f5539" transform="rotate(-16 151 196)"/><rect x="167" y="179" width="32" height="16" rx="8" fill="#f08c00" transform="rotate(-10 183 187)"/><rect x="134" y="182" width="28" height="14" rx="7" fill="#4dabf7" transform="rotate(-4 148 189)"/><rect x="132" y="121" width="24" height="12" rx="6" fill="#d6a72c" transform="rotate(2 144 127)"/><rect x="131" y="129" width="20" height="10" rx="5" fill="#f59f00" transform="rotate(-2 141 134)"/><rect x="229" y="153" width="16" height="8" rx="4" fill="#faa2c1" transform="rotate(4 237 157)"/></g>
<text x="240" y="55" text-anchor="middle" font-family="Arial,sans-serif" font-size="17" font-weight="700" fill="#6d5607">Rice</text>
<text x="240" y="285" text-anchor="middle" font-family="Arial,sans-serif" font-size="18" font-weight="700" fill="#6d5607">Mix Fried Rice</text>
<text x="240" y="308" text-anchor="middle" font-family="Arial,sans-serif" font-size="34">🍛</text>
</svg>