<svg xmlns="http://www.w3.org/2000/svg" viewBox="0 0 480 320">
<defs><linearGradient id="g" x1="0" y1="0" x2="1" y2="1"><stop offset="0" stop-color="#fff1e9"/><stop offset="1" stop-color="#ef6c3b" stop-opacity=".28"/></linearGradient><filter id="s"><feDropShadow dx="0" dy="8" stdDeviation="8" flood-opacity=".18"/></filter></defs>
<rect width="480" height="320" rx="28" fill="url(#g)"/>
<circle cx="400" cy="50" r="70" fill="#da77f2" opacity=".18"/><circle cx="70" cy="270" r="90" fill="#f59f00" opacity=".12"/>
<g filter="url(#s)"><ellipse cx="240" cy="190" rx="150" ry="78" fill="#fff" stroke="#ddd" stroke-width="5"/></g>
<g><rect x="120" y="165" width="22" height="11" rx="5" fill="#ef6c3b" transform="rotate(-2 131 170)"/><rect x="120" y="120" width="18" height="9" rx="4" fill="#f59f00" transform="rotate(4 129 124)"/><rect x="220" y="140" width="32" height="16" rx="8" fill="#da77f2" transform="rotate(10 236 148)"/><rect x="120" y="135" width="28" height="14" rx="7" fill="#7f5539" transform="rotate(16 134 142)"/><rect x="240" y="160" width="24" height="12" rx="6" fill="#f08c00" transform="rotate(-13 252 166)"/><rect x="170" y="141" width="20" height="10" rx="5" fill="#4dabf7" transform="rotate(-7 180 146)"/><rect x="141" y="170" width="16" height="8" rx="4" fill="#ef6c3b" transform="rotate(-11 149 174)"/><rect x="120" y="173" width="30" height="15" rx="7" fill="#f59f00" transform="rotate(-5 135 180)"/><rect x="253" y="125" width="26" height="13" rx="6" fill="#da77f2" transform="rotate(1 266 131)"/></g>
<text x="240" y="55" text-anchor="middle" font-family="Arial,sans-serif" font-size="17" font-weight="700" fill="#6b2d1a">Chinese Starter</text>
<text x="240" y="285" text-anchor="middle" font-family="Arial,sans-serif" font-size="18" font-weight="700" fill="#6b2d1a">Paneer Manchurian</text>
<text x="240" y="308" text-anchor="middle" font-family="Arial,sans-serif" font-size="34">🥘</text>
</svg>